HIERARCHY
ROOT root
{
	OFFSET 0.000000 0.000000 0.000000
	CHANNELS 6 Xposition Yposition Zposition Zrotation Yrotation Xrotation
	JOINT lhip
	{
		OFFSET 0.058581 -0.082280 -0.017664
		CHANNELS 3 Zrotation Yrotation Xrotation
		JOINT lknee
		{
			OFFSET 0.043451 -0.386469 0.008037
			CHANNELS 3 Zrotation Yrotation Xrotation
			JOINT lankle
			{
				OFFSET -0.014790 -0.426874 -0.037428
				CHANNELS 3 Zrotation Yrotation Xrotation
				JOINT ltoe
				{
					OFFSET 0.041054 -0.060286 0.122042
					CHANNELS 3 Zrotation Yrotation Xrotation
					End Site
					{
						OFFSET 0.000000 0.000000 0.000000
					}
				}
			}
		}
	}
	JOINT rhip
	{
		OFFSET -0.060310 -0.090513 -0.013543
		CHANNELS 3 Zrotation Yrotation Xrotation
		JOINT rknee
		{
			OFFSET -0.043257 -0.383688 -0.004843
			CHANNELS 3 Zrotation Yrotation Xrotation
			JOINT rankle
			{
				OFFSET 0.019056 -0.420046 -0.034562
				CHANNELS 3 Zrotation Yrotation Xrotation
				JOINT rtoe
				{
					OFFSET -0.034840 -0.062106 0.130323
					CHANNELS 3 Zrotation Yrotation Xrotation
					End Site
					{
						OFFSET 0.000000 0.000000 0.000000
					}
				}
			}
		}
	}
	JOINT lowerback
	{
		OFFSET 0.004439 0.124404 -0.038385
		CHANNELS 3 Zrotation Yrotation Xrotation
		JOINT upperback
		{
			OFFSET 0.004488 0.137956 0.026820
			CHANNELS 3 Zrotation Yrotation Xrotation
			JOINT chest
			{
				OFFSET -0.002265 0.056032 0.002855
				CHANNELS 3 Zrotation Yrotation Xrotation
				JOINT lowerneck
				{
					OFFSET -0.013390 0.211636 -0.033468
					CHANNELS 3 Zrotation Yrotation Xrotation
					JOINT upperneck
					{
						OFFSET 0.010113 0.088937 0.050410
						CHANNELS 3 Zrotation Yrotation Xrotation
						End Site
						{
							OFFSET 0.000000 0.000000 0.000000
						}
					}
				}
				JOINT lclavicle
				{
					OFFSET 0.071702 0.114000 -0.018898
					CHANNELS 3 Zrotation Yrotation Xrotation
					JOINT lshoulder
					{
						OFFSET 0.122921 0.045205 -0.019046
						CHANNELS 3 Zrotation Yrotation Xrotation
						JOINT lelbow
						{
							OFFSET 0.255332 -0.015649 -0.022946
							CHANNELS 3 Zrotation Yrotation Xrotation
							JOINT lwrist
							{
								OFFSET 0.265709 0.012698 -0.007375
								CHANNELS 3 Zrotation Yrotation Xrotation
								End Site
								{
									OFFSET 0.000000 0.000000 0.000000
								}
							}
						}
					}
				}
				JOINT rclavicle
				{
					OFFSET -0.082954 0.112472 -0.023707
					CHANNELS 3 Zrotation Yrotation Xrotation
					JOINT rshoulder
					{
						OFFSET -0.113228 0.046853 -0.008472
						CHANNELS 3 Zrotation Yrotation Xrotation
						JOINT relbow
						{
							OFFSET -0.260127 -0.014369 -0.031269
							CHANNELS 3 Zrotation Yrotation Xrotation
							JOINT rwrist
							{
								OFFSET -0.269108 0.006794 -0.006027
								CHANNELS 3 Zrotation Yrotation Xrotation
								End Site
								{
									OFFSET 0.000000 0.000000 0.000000
								}
							}
						}
					}
				}
			}
		}
	}
}
MOTION
Frames: 14
Frame Time: 0.033333
0.538845 0.507830 0.663838 -94.437280 -12.932296 -29.701562 15.581767 16.960818 62.987082 0.813081 -30.593180 5.769239 -20.441792 14.038105 21.764493 0.000000 -0.000000 0.000000 -4.768887 -11.686596 32.724051 -8.443783 19.737909 2.807554 16.864740 10.640452 14.507759 0.000000 -0.000000 0.000000 9.505149 0.782744 38.816259 -7.988522 -7.782640 -2.182836 2.361992 -8.657544 10.900580 -13.097313 16.131766 27.292053 3.805511 8.147027 -12.755787 31.961992 -2.931894 -23.359981 -26.334469 -31.782208 -15.940273 -4.456776 11.122218 12.050347 -8.321796 -11.077154 -28.762400 -25.603708 -24.362037 -14.734116 44.762479 -34.082171 9.093745 73.407577 75.060101 104.337447 -45.795290 13.539774 -37.344619 
0.538082 0.509429 0.665073 -92.792924 -12.961286 -30.441728 17.746000 18.209817 62.991398 -1.195133 -28.119713 10.195615 -20.329751 14.421802 22.451017 0.000000 -0.000000 0.000000 -6.809039 -13.725409 34.110764 -7.071520 19.023367 -0.077406 17.291430 13.507602 11.324526 0.000000 -0.000000 0.000000 9.409112 1.476624 39.718679 -7.953149 -8.164273 -2.132610 2.671053 -8.576389 10.910184 -13.967968 17.488280 26.877952 3.074522 8.163767 -12.782125 33.319439 -3.222856 -24.664002 -21.979684 -32.416456 -17.947549 -4.731514 10.207618 12.668949 -7.282787 -10.750705 -27.869493 -25.208051 -23.289772 -14.294567 45.186342 -34.686499 10.409099 75.010267 70.440600 106.320178 -44.736976 13.538537 -36.742914 
0.537449 0.510064 0.665839 -91.018810 -12.612225 -31.687284 19.705583 19.399234 62.135482 -2.296166 -26.357021 12.639436 -19.300028 14.998636 22.146268 0.000000 -0.000000 0.000000 -9.697487 -15.709587 37.544416 -6.077974 19.936708 -2.269592 17.300886 16.040873 8.887124 0.000000 -0.000000 0.000000 9.002767 2.526032 41.085205 -7.797207 -8.827584 -2.202018 3.320119 -8.282690 11.380781 -14.680827 18.337806 26.130551 2.860017 7.982814 -12.397656 34.625946 -3.074704 -26.446352 -17.848340 -32.800598 -19.339937 -5.611821 8.596055 14.472292 -5.311959 -10.420525 -27.929578 -24.641454 -22.084337 -14.810211 46.151014 -34.837554 11.430656 69.926612 66.031491 100.122474 -43.082259 12.715055 -36.245537 
0.537259 0.509030 0.665020 -89.149105 -12.197470 -32.739533 20.570560 20.382849 60.190722 -2.802791 -25.587955 12.103871 -18.070744 15.417963 21.374658 0.000000 -0.000000 0.000000 -12.163184 -16.643120 41.292799 -5.959048 21.666581 -2.575759 18.504606 17.426078 10.023593 0.000000 -0.000000 0.000000 8.327887 3.712532 42.281318 -7.533339 -9.387394 -2.550824 3.999166 -7.792641 11.905132 -15.030464 18.979718 25.464314 2.835908 7.706844 -11.042713 35.781081 -2.832357 -28.196864 -13.954571 -33.312539 -20.371841 -5.834000 7.046139 16.461331 -3.576559 -10.389435 -27.205225 -23.832705 -20.629071 -15.805106 47.515677 -34.247293 12.563254 60.960636 61.408613 89.203956 -41.723479 11.495923 -36.164229 
0.537147 0.506308 0.662870 -87.279090 -12.021155 -33.198290 19.844322 20.956045 57.379750 -2.278228 -24.608848 8.532306 -15.893463 16.392236 19.340300 0.000000 -0.000000 0.000000 -12.115923 -15.628113 44.150902 -7.068689 25.316448 -0.640372 19.562245 17.085731 12.558632 0.000000 -0.000000 0.000000 7.301675 4.604290 42.795103 -7.307159 -9.344886 -3.230608 4.578141 -7.014201 12.126093 -15.566525 18.886856 25.179657 2.992928 7.525837 -8.943855 36.807488 -2.665441 -29.810310 -10.186011 -34.193622 -21.600778 -5.633426 5.914360 15.607529 -3.139302 -10.186610 -24.880982 -23.189507 -18.977554 -17.187503 49.388275 -33.289360 13.997068 50.493289 56.121899 75.374009 -37.140083 10.059353 -35.527886 
0.537371 0.504085 0.662214 -85.304222 -11.832711 -33.720986 18.407272 20.746558 55.100805 -0.996171 -23.488778 3.245876 -13.325856 17.569473 15.590822 0.000000 -0.000000 0.000000 -10.611247 -13.931542 46.659086 -8.537336 28.637658 4.106340 21.270472 15.133694 16.571501 0.000000 -0.000000 0.000000 5.866870 5.178356 42.777053 -7.267843 -9.051306 -3.418459 4.940077 -6.081144 12.001116 -16.145062 18.692476 26.029215 3.659360 7.609130 -8.950186 38.044196 -2.351819 -31.407908 -6.477339 -34.723161 -22.679877 -5.882809 4.327438 14.185301 -4.237993 -10.420509 -21.955000 -22.735879 -17.264874 -18.827110 52.489366 -32.434122 14.635386 40.373600 49.620659 59.689574 -30.147127 8.241956 -35.964614 
0.536628 0.501294 0.662568 -83.610575 -11.271682 -34.070005 17.871010 20.146946 53.550067 0.110846 -22.372291 -2.559320 -11.863760 17.774815 10.905137 0.000000 -0.000000 0.000000 -8.987501 -13.119236 48.512473 -8.560512 31.134278 10.798835 23.161416 11.590819 23.034919 0.000000 -0.000000 0.000000 4.388821 5.483210 42.155059 -7.129641 -8.838316 -2.988747 5.408182 -5.482654 11.508900 -16.598060 18.757635 25.985899 4.058239 8.614553 -7.370872 38.993590 -2.584009 -32.956407 -2.436545 -33.815556 -24.414693 -5.525802 2.667663 15.020967 -8.333969 -11.025457 -16.489102 -22.286956 -15.265287 -20.256872 56.008703 -31.441902 13.423550 31.672275 42.334081 45.060455 -19.185601 7.803362 -36.122750 
0.536134 0.497467 0.664666 -82.363474 -10.984643 -34.334592 20.338670 20.703828 53.476987 0.329710 -21.301869 -7.665583 -12.735184 15.912457 6.836328 0.000000 -0.000000 0.000000 -9.349256 -13.885872 50.116136 -6.825396 33.651470 16.264836 26.734745 10.703256 29.806695 0.000000 -0.000000 0.000000 3.731462 5.748348 41.452327 -7.021761 -8.868062 -2.049901 5.948047 -4.979185 10.452351 -17.298895 19.473140 25.238807 4.160985 9.169279 -5.286327 40.165160 -3.474644 -34.717009 1.307979 -31.550648 -26.940906 -4.803788 1.624792 16.960143 -13.510481 -9.742924 -7.704549 -21.383150 -12.938844 -21.379452 58.801804 -30.026642 9.691381 24.952964 33.416511 33.871034 -6.964951 8.102899 -30.927519 
0.536050 0.492261 0.664369 -81.444573 -10.773282 -33.559884 22.494802 21.314226 53.234028 0.533288 -21.432322 -11.042222 -13.431898 13.771063 3.761375 0.000000 -0.000000 0.000000 -9.893195 -15.419574 49.407710 -5.345414 33.050079 18.921536 28.359862 12.225931 30.456294 0.000000 -0.000000 0.000000 3.501659 5.606499 40.700435 -6.853289 -8.816243 -1.833198 6.267925 -4.316625 9.328224 -18.181877 20.627038 25.811451 4.060299 8.673120 -6.592442 41.214762 -3.368859 -36.147728 4.475648 -30.114107 -28.928215 -3.848331 0.774397 18.280025 -17.075691 -7.250202 -0.760344 -20.205412 -11.044535 -21.856391 61.442100 -28.080184 5.404242 19.014402 23.724294 24.785502 1.850454 7.239460 -26.101967 
0.536957 0.485509 0.663885 -80.391045 -10.571989 -32.742189 23.401252 21.103293 53.580337 0.694837 -22.805332 -11.272456 -12.389818 12.802143 1.372780 0.000000 -0.000000 0.000000 -9.644445 -17.130152 47.411988 -5.261260 30.703194 18.024117 26.380574 11.326693 28.306505 0.000000 -0.000000 0.000000 3.083987 5.497344 39.864934 -6.452101 -8.425386 -1.524649 6.649454 -3.676211 8.434900 -19.059879 21.305996 24.782724 3.791502 8.760611 -4.782619 41.980873 -3.371330 -37.054012 8.267813 -28.562612 -31.776944 -3.082337 0.342430 17.996606 -19.327076 -4.920583 4.840563 -18.837621 -8.591178 -21.310994 63.820503 -25.697952 1.139420 13.018518 14.991432 14.833623 11.942489 7.184294 -21.014700 
0.537561 0.479567 0.666850 -79.332730 -10.490765 -33.550932 24.707244 19.965433 56.793694 1.036539 -25.033725 -9.052457 -12.449863 12.869526 1.725916 0.000000 -0.000000 0.000000 -9.155175 -18.307935 46.872498 -5.606051 29.791833 14.233025 25.115836 11.302780 26.073462 0.000000 -0.000000 0.000000 3.115486 5.269095 40.308679 -6.173998 -7.736035 -0.703327 7.039448 -3.023630 8.110547 -18.896274 22.238915 22.105137 3.235008 8.707789 0.317927 42.591765 -2.341248 -38.397779 11.119920 -27.108051 -34.192044 -2.052108 -0.204770 17.604550 -21.825533 -3.433348 9.885204 -17.699481 -6.552310 -20.786491 65.480675 -24.021372 -1.943782 8.850576 9.020452 9.714569 22.454034 5.667916 -13.956926 
0.537969 0.473288 0.669582 -78.363489 -10.160338 -34.540208 24.662998 17.806759 60.387617 1.587820 -28.410393 -5.504054 -13.759410 12.974688 4.737045 0.000000 -0.000000 0.000000 -8.055341 -19.168489 45.767595 -6.197804 27.446664 10.237631 23.821940 12.094197 23.553225 0.000000 -0.000000 0.000000 3.281368 4.940089 41.201703 -5.849499 -7.115489 0.114213 7.396806 -2.175677 7.653446 -18.759490 23.417696 21.908632 2.843717 7.582910 1.296459 43.232220 -0.467413 -39.465865 12.993239 -25.903890 -34.962494 -1.467700 -0.890608 16.629046 -23.298868 -2.382724 12.111079 -17.010571 -4.946632 -20.181787 67.055643 -23.016473 -3.613495 6.533474 5.892541 6.625785 26.267464 3.936121 -11.584626 
0.538785 0.464823 0.669852 -77.589370 -9.640275 -34.414399 22.926798 15.827202 62.028180 1.429747 -31.762847 -0.398674 -15.206683 13.072608 9.198921 0.000000 -0.000000 0.000000 -6.347351 -19.859708 42.946378 -6.416404 23.394899 7.053652 21.726864 13.290361 20.204888 0.000000 -0.000000 0.000000 3.391699 4.482753 41.449840 -5.311933 -6.519715 0.524262 7.815367 -0.951149 6.433820 -19.690346 23.963123 24.292956 2.745647 6.023676 -1.640724 43.817222 1.082039 -40.032833 13.937914 -25.145842 -34.754287 -1.120740 -1.383210 15.171100 -26.470579 -0.012259 13.379317 -16.494760 -3.163754 -18.930306 68.232540 -22.169309 -5.401373 5.439772 3.878500 4.358553 31.121038 2.996137 -12.041893 
0.539938 0.454714 0.669274 -76.809115 -9.231791 -34.033979 21.648170 14.849456 62.750644 0.258724 -33.795438 5.385108 -17.366106 13.076423 15.077410 0.000000 -0.000000 0.000000 -5.883214 -20.937987 40.543323 -6.101068 19.277883 3.952287 19.881653 15.090766 17.019266 0.000000 -0.000000 0.000000 3.738246 4.032645 41.577996 -4.769491 -5.844846 0.576987 8.046166 0.330186 5.348128 -20.703809 24.042082 25.646160 2.214524 4.882234 -2.873981 43.609639 2.802168 -40.359023 14.426443 -24.507376 -33.871275 -0.968369 -3.013049 14.718458 -28.871017 1.771538 14.317172 -15.982721 -1.404745 -17.751221 69.128431 -21.097045 -6.836402 4.872917 2.478351 2.177689 34.515719 2.849798 -12.851497 
